<!DOCTYPE svg PUBLIC "-//W3C//DTD SVG 1.1//EN" "http://www.w3.org/Graphics/SVG/1.1/DTD/svg11.dtd">
<!-- Uploaded to: SVG Repo, www.svgrepo.com, Transformed by: SVG Repo Mixer Tools -->
<svg fill="#8c2b2b" width="78px" height="78px" viewBox="-100 -100 1200.00 1200.00" version="1.1" xmlns="http://www.w3.org/2000/svg" xmlns:xlink="http://www.w3.org/1999/xlink" enable-background="new 0 0 1000 1000" xml:space="preserve" stroke="#8c2b2b">
<g id="SVGRepo_bgCarrier" stroke-width="0">
<path transform="translate(-100, -100), scale(37.5)" d="M16,30.166634525571553C18.52463536181619,30.121239372007842,21.150910912745395,29.967193956224037,23.28222290479711,28.613180063150413C25.38168018608445,27.279403339057986,26.62249029436474,24.99500990054065,27.682413396292695,22.74484451913408C28.682206365145795,20.62233249633277,28.992598442694593,18.33480148983285,29.22356439381838,16C29.47603982910789,13.44776223684925,30.237034811981797,10.735773581675883,29.097687092981857,8.43804683110544C27.945848853025268,6.115130400815582,25.521294004780277,4.641185713005682,23.113832376365156,3.678480887607117C20.868855933848184,2.780751250462293,18.41140253131532,3.0244956221930277,16,3.200494374547686C13.733065647669486,3.3659489647701073,11.391199988606514,3.47388752401886,9.461458418518308,4.674913773471944C7.557353855924261,5.859984146016339,6.394458661559001,7.865658175946897,5.33131818587106,9.840433682714185C4.291921483822505,11.771105306980955,3.799368956108726,13.85088094739017,3.3644830829330843,15.999999999999998C2.837447110013131,18.60450642496628,1.5136742640527598,21.325234742956443,2.508709814773736,23.789200020155725C3.513168589460705,26.276499636147882,6.139836607717303,27.73141871589674,8.564993665154486,28.877808726548878C10.87843395726087,29.971389380625595,13.441522270068782,30.212638194535458,16,30.166634525571553" fill="#73b46e" strokewidth="0"/>
</g>
<g id="SVGRepo_tracerCarrier" stroke-linecap="round" stroke-linejoin="round" stroke="#ae3232" stroke-width="118"> <g> <g transform="translate(0.000000,511.000000) scale(0.100000,-0.100000)"> <path d="M3378.3,5001.4c0-9.9,71.2-294.7,156.2-632.9l156.2-619h-81.1c-142.4,0-235.3-41.5-350-158.2c-211.6-209.6-211.6-423.2,0-632.8c120.6-120.6,207.7-158.2,373.8-158.2h100.9v-373.8v-373.8l-180,79.1c-626.9,268.9-1313.1,249.2-1926.2-57.4c-253.1-126.6-407.4-241.3-632.8-468.7c-516.2-524.1-816.8-1176.7-884-1922.3c-47.5-532,55.4-1075.8,298.6-1578.2c245.2-506.3,611.1-925.5,1069.9-1228.1c102.8-67.2,446.9-269,761.4-445c316.4-178,581.4-330.3,591.3-338.2c9.9-7.9-21.8-59.3-71.2-112.7c-185.9-207.7-178-417.3,23.7-617c71.2-73.2,136.5-118.7,189.9-134.5c116.7-33.6,3933.5-33.6,4050.2,0c53.4,15.8,118.7,61.3,189.8,134.5c201.7,199.7,209.6,409.4,23.7,617c-49.4,53.4-81.1,104.8-71.2,112.7c9.9,7.9,276.9,160.2,591.3,338.2c316.4,176,658.5,377.7,761.4,447c781.2,516.2,1283.5,1364.6,1368.5,2311.9c63.3,700.1-142.4,1443.7-563.6,2040.9c-148.3,209.6-470.7,539.9-646.7,662.5c-288.7,203.7-656.6,350-1018.5,405.4c-381.7,57.4-832.6-4-1214.3-168.1l-180-79.1v373.8v373.8h100.8c166.1,0,253.2,37.6,373.8,158.2c106.8,106.8,158.2,207.6,158.2,316.4c0,108.8-51.4,209.6-158.2,316.4c-116.7,118.7-207.7,158.2-354,158.2c-71.2,0-81.1,5.9-73.2,35.6c5.9,17.8,73.2,286.8,150.3,597.2c77.1,310.5,144.4,579.5,150.3,599.2c9.9,31.6-75.1,33.6-1611.8,33.6C4108.1,5015.3,3378.3,5009.4,3378.3,5001.4z M4768.6,4675.1c-106.8-51.4-102.8-215.6,5.9-267c130.5-63.3,261,59.3,205.7,193.8c-13.8,33.6-45.5,69.2-67.2,77.1c-23.7,9.9,178,17.8,482.5,17.8c381.7,0,512.2-5.9,480.6-21.8c-108.8-53.4-98.9-225.4,15.8-272.9c124.6-51.4,247.2,71.2,197.7,195.8c-13.8,31.6-43.5,65.3-67.2,77.1c-35.6,17.8-21.7,21.8,77.1,21.8l122.6,2l-118.7-474.6l-118.7-474.6l-636.8,2c-458.8,0-623,5.9-591.3,21.8c23.7,11.9,53.4,47.5,67.2,79.1c51.4,126.6-73.2,247.2-201.7,193.8c-108.8-45.5-122.6-211.6-19.8-267c45.5-25.7,19.8-27.7-269-29.7h-320.4l-19.8,75.1c-23.7,89-195.8,791.1-207.7,840.5c-7.9,31.6,25.7,33.6,508.2,31.6C4671.7,4696.9,4800.3,4691,4768.6,4675.1z M6542.6,3393.6c25.7-25.7,39.6-65.3,39.6-118.7c0-53.4-13.8-92.9-39.6-118.7c-39.6-39.6-65.3-39.6-1542.6-39.6c-1477.3,0-1503,0-1542.6,39.6c-25.7,25.7-39.6,65.3-39.6,118.7c0,53.4,13.8,93,39.6,118.7c39.6,39.6,65.3,39.6,1542.6,39.6C6477.3,3433.2,6503,3433.2,6542.6,3393.6z M5949.3,2256.5v-545.8l49.4-47.5c25.7-27.7,71.2-49.4,98.9-49.4s130.5,47.5,227.4,106.8c350,211.6,700.1,300.6,1107.5,282.8c524.1-23.7,939.4-207.7,1331-593.3c454.9-448.9,727.8-1002.7,806.9-1641.4c29.7-239.3,9.9-664.5-41.5-907.7c-146.3-696.1-561.7-1311.2-1153-1706.7c-67.2-45.5-496.4-294.7-953.2-551.8c-456.8-259.1-846.4-488.5-864.2-510.2c-51.4-57.3-45.5-146.3,13.8-203.7c43.5-45.5,63.3-49.4,227.4-49.4c211.6,0,257.1-27.7,257.1-158.2c0-53.4-13.8-92.9-39.6-118.7c-39.6-39.6-65.3-39.6-2017.2-39.6c-1951.9,0-1977.6,0-2017.2,39.6c-25.7,25.7-39.6,65.3-39.6,118.7s13.8,92.9,39.6,118.7c39.6,39.6,65.3,39.6,1503,39.6h1463.5v158.2v158.2H4655.9H3360.5l-806.9,458.8c-880.1,498.4-1012.5,581.4-1226.1,769.3C765.9-2120,451.4-1449.6,417.8-680.3C384.2,126.6,667,848.4,1236.6,1410.1c395.5,389.6,808.9,571.5,1340.8,593.3c209.6,7.9,292.7,2,445-29.7c247.2-51.4,468.7-138.4,662.5-261.1c178-112.7,245.2-122.6,316.4-49.4l49.4,47.5v545.8v543.8H5000h949.3V2256.5z"/> <path d="M4135.8,4516.9c-108.8-53.4-98.9-225.4,15.8-272.9c176-73.2,298.6,195.8,124.6,274.9C4216.9,4544.6,4193.1,4544.6,4135.8,4516.9z"/> <path d="M5401.5,4200.5c-108.8-53.4-98.9-225.4,15.8-272.9c176-73.2,298.6,195.8,124.6,274.9C5482.6,4228.2,5458.8,4228.2,5401.5,4200.5z"/> <path d="M886.5,110.7V-47.5h3164.2H7215v158.2V269H4050.7H886.5V110.7z"/> <path d="M7689.6,110.7V-47.5h712h711.9v158.2V269h-711.9h-712V110.7z"/> </g> </g> </g>
<g id="SVGRepo_iconCarrier"> <g> <g transform="translate(0.000000,511.000000) scale(0.100000,-0.100000)"> <path d="M3378.3,5001.4c0-9.9,71.2-294.7,156.2-632.9l156.2-619h-81.1c-142.4,0-235.3-41.5-350-158.2c-211.6-209.6-211.6-423.2,0-632.8c120.6-120.6,207.7-158.2,373.8-158.2h100.9v-373.8v-373.8l-180,79.1c-626.9,268.9-1313.1,249.2-1926.2-57.4c-253.1-126.6-407.4-241.3-632.8-468.7c-516.2-524.1-816.8-1176.7-884-1922.3c-47.5-532,55.4-1075.8,298.6-1578.2c245.2-506.3,611.1-925.5,1069.9-1228.1c102.8-67.2,446.9-269,761.4-445c316.4-178,581.4-330.3,591.3-338.2c9.9-7.9-21.8-59.3-71.2-112.7c-185.9-207.7-178-417.3,23.7-617c71.2-73.2,136.5-118.7,189.9-134.5c116.7-33.6,3933.5-33.6,4050.2,0c53.4,15.8,118.7,61.3,189.8,134.5c201.7,199.7,209.6,409.4,23.7,617c-49.4,53.4-81.1,104.8-71.2,112.7c9.9,7.9,276.9,160.2,591.3,338.2c316.4,176,658.5,377.7,761.4,447c781.2,516.2,1283.5,1364.6,1368.5,2311.9c63.3,700.1-142.4,1443.7-563.6,2040.9c-148.3,209.6-470.7,539.9-646.7,662.5c-288.7,203.7-656.6,350-1018.5,405.4c-381.7,57.4-832.6-4-1214.3-168.1l-180-79.1v373.8v373.8h100.8c166.1,0,253.2,37.6,373.8,158.2c106.8,106.8,158.2,207.6,158.2,316.4c0,108.8-51.4,209.6-158.2,316.4c-116.7,118.7-207.7,158.2-354,158.2c-71.2,0-81.1,5.9-73.2,35.6c5.9,17.8,73.2,286.8,150.3,597.2c77.1,310.5,144.4,579.5,150.3,599.2c9.9,31.6-75.1,33.6-1611.8,33.6C4108.1,5015.3,3378.3,5009.4,3378.3,5001.4z M4768.6,4675.1c-106.8-51.4-102.8-215.6,5.9-267c130.5-63.3,261,59.3,205.7,193.8c-13.8,33.6-45.5,69.2-67.2,77.1c-23.7,9.9,178,17.8,482.5,17.8c381.7,0,512.2-5.9,480.6-21.8c-108.8-53.4-98.9-225.4,15.8-272.9c124.6-51.4,247.2,71.2,197.7,195.8c-13.8,31.6-43.5,65.3-67.2,77.1c-35.6,17.8-21.7,21.8,77.1,21.8l122.6,2l-118.7-474.6l-118.7-474.6l-636.8,2c-458.8,0-623,5.9-591.3,21.8c23.7,11.9,53.4,47.5,67.2,79.1c51.4,126.6-73.2,247.2-201.7,193.8c-108.8-45.5-122.6-211.6-19.8-267c45.5-25.7,19.8-27.7-269-29.7h-320.4l-19.8,75.1c-23.7,89-195.8,791.1-207.7,840.5c-7.9,31.6,25.7,33.6,508.2,31.6C4671.7,4696.9,4800.3,4691,4768.6,4675.1z M6542.6,3393.6c25.7-25.7,39.6-65.3,39.6-118.7c0-53.4-13.8-92.9-39.6-118.7c-39.6-39.6-65.3-39.6-1542.6-39.6c-1477.3,0-1503,0-1542.6,39.6c-25.7,25.7-39.6,65.3-39.6,118.7c0,53.4,13.8,93,39.6,118.7c39.6,39.6,65.3,39.6,1542.6,39.6C6477.3,3433.2,6503,3433.2,6542.6,3393.6z M5949.3,2256.5v-545.8l49.4-47.5c25.7-27.7,71.2-49.4,98.9-49.4s130.5,47.5,227.4,106.8c350,211.6,700.1,300.6,1107.5,282.8c524.1-23.7,939.4-207.7,1331-593.3c454.9-448.9,727.8-1002.7,806.9-1641.4c29.7-239.3,9.9-664.5-41.5-907.7c-146.3-696.1-561.7-1311.2-1153-1706.7c-67.2-45.5-496.4-294.7-953.2-551.8c-456.8-259.1-846.4-488.5-864.2-510.2c-51.4-57.3-45.5-146.3,13.8-203.7c43.5-45.5,63.3-49.4,227.4-49.4c211.6,0,257.1-27.7,257.1-158.2c0-53.4-13.8-92.9-39.6-118.7c-39.6-39.6-65.3-39.6-2017.2-39.6c-1951.9,0-1977.6,0-2017.2,39.6c-25.7,25.7-39.6,65.3-39.6,118.7s13.8,92.9,39.6,118.7c39.6,39.6,65.3,39.6,1503,39.6h1463.5v158.2v158.2H4655.9H3360.5l-806.9,458.8c-880.1,498.4-1012.5,581.4-1226.1,769.3C765.9-2120,451.4-1449.6,417.8-680.3C384.2,126.6,667,848.4,1236.6,1410.1c395.5,389.6,808.9,571.5,1340.8,593.3c209.6,7.9,292.7,2,445-29.7c247.2-51.4,468.7-138.4,662.5-261.1c178-112.7,245.2-122.6,316.4-49.4l49.4,47.5v545.8v543.8H5000h949.3V2256.5z"/> <path d="M4135.8,4516.9c-108.8-53.4-98.9-225.4,15.8-272.9c176-73.2,298.6,195.8,124.6,274.9C4216.9,4544.6,4193.1,4544.6,4135.8,4516.9z"/> <path d="M5401.5,4200.5c-108.8-53.4-98.9-225.4,15.8-272.9c176-73.2,298.6,195.8,124.6,274.9C5482.6,4228.2,5458.8,4228.2,5401.5,4200.5z"/> <path d="M886.5,110.7V-47.5h3164.2H7215v158.2V269H4050.7H886.5V110.7z"/> <path d="M7689.6,110.7V-47.5h712h711.9v158.2V269h-711.9h-712V110.7z"/> </g> </g> </g>
</svg>